G04 #@! TF.GenerationSoftware,KiCad,Pcbnew,5.1.5*
G04 #@! TF.CreationDate,2020-05-28T21:48:18+02:00*
G04 #@! TF.ProjectId,PIV_FliFi_Slot,5049565f-466c-4694-9669-5f536c6f742e,rev?*
G04 #@! TF.SameCoordinates,Original*
G04 #@! TF.FileFunction,Paste,Top*
G04 #@! TF.FilePolarity,Positive*
%FSLAX46Y46*%
G04 Gerber Fmt 4.6, Leading zero omitted, Abs format (unit mm)*
G04 Created by KiCad (PCBNEW 5.1.5) date 2020-05-28 21:48:18*
%MOMM*%
%LPD*%
G04 APERTURE LIST*
%ADD10R,1.500000X0.600000*%
%ADD11R,1.300000X1.500000*%
%ADD12O,1.524000X8.382000*%
%ADD13R,0.600000X1.500000*%
%ADD14R,1.500000X1.250000*%
%ADD15R,1.250000X1.500000*%
G04 APERTURE END LIST*
D10*
X214536000Y-73787000D03*
X214536000Y-75057000D03*
X214536000Y-76327000D03*
X214536000Y-77597000D03*
X214536000Y-78867000D03*
X214536000Y-80137000D03*
X214536000Y-81407000D03*
X209136000Y-81407000D03*
X209136000Y-80137000D03*
X209136000Y-78867000D03*
X209136000Y-77597000D03*
X209136000Y-76327000D03*
X209136000Y-75057000D03*
X209136000Y-73787000D03*
D11*
X206121000Y-81868000D03*
X206121000Y-79168000D03*
X206121000Y-76661000D03*
X206121000Y-73961000D03*
D12*
X128270000Y-88900000D03*
X222250000Y-88900000D03*
X201930000Y-88900000D03*
X133350000Y-88900000D03*
X204470000Y-88900000D03*
X151130000Y-88900000D03*
X161290000Y-88900000D03*
X189230000Y-88900000D03*
X146050000Y-88900000D03*
X110490000Y-88900000D03*
X163830000Y-88900000D03*
X125730000Y-88900000D03*
X168910000Y-88900000D03*
X138430000Y-88900000D03*
X107950000Y-88900000D03*
X212090000Y-88900000D03*
X214630000Y-88900000D03*
X209550000Y-88900000D03*
X181610000Y-88900000D03*
X217170000Y-88900000D03*
X140970000Y-88900000D03*
X156210000Y-88900000D03*
X153670000Y-88900000D03*
X184150000Y-88900000D03*
X179070000Y-88900000D03*
X166370000Y-88900000D03*
X219710000Y-88900000D03*
X105410000Y-88900000D03*
X135890000Y-88900000D03*
X102870000Y-88900000D03*
X199390000Y-88900000D03*
X207010000Y-88900000D03*
X194310000Y-88900000D03*
X196850000Y-88900000D03*
X143510000Y-88900000D03*
X148590000Y-88900000D03*
X191770000Y-88900000D03*
X115570000Y-88900000D03*
X113030000Y-88900000D03*
X158750000Y-88900000D03*
X130810000Y-88900000D03*
X186690000Y-88900000D03*
D13*
X203073000Y-80170000D03*
X201803000Y-80170000D03*
X200533000Y-80170000D03*
X199263000Y-80170000D03*
X197993000Y-80170000D03*
X196723000Y-80170000D03*
X195453000Y-80170000D03*
X194183000Y-80170000D03*
X194183000Y-74770000D03*
X195453000Y-74770000D03*
X196723000Y-74770000D03*
X197993000Y-74770000D03*
X199263000Y-74770000D03*
X200533000Y-74770000D03*
X201803000Y-74770000D03*
X203073000Y-74770000D03*
X112763300Y-80170000D03*
X111493300Y-80170000D03*
X110223300Y-80170000D03*
X108953300Y-80170000D03*
X107683300Y-80170000D03*
X106413300Y-80170000D03*
X105143300Y-80170000D03*
X103873300Y-80170000D03*
X103873300Y-74770000D03*
X105143300Y-74770000D03*
X106413300Y-74770000D03*
X107683300Y-74770000D03*
X108953300Y-74770000D03*
X110223300Y-74770000D03*
X111493300Y-74770000D03*
X112763300Y-74770000D03*
X158750000Y-80170000D03*
X157480000Y-80170000D03*
X156210000Y-80170000D03*
X154940000Y-80170000D03*
X153670000Y-80170000D03*
X152400000Y-80170000D03*
X151130000Y-80170000D03*
X149860000Y-80170000D03*
X149860000Y-74770000D03*
X151130000Y-74770000D03*
X152400000Y-74770000D03*
X153670000Y-74770000D03*
X154940000Y-74770000D03*
X156210000Y-74770000D03*
X157480000Y-74770000D03*
X158750000Y-74770000D03*
X170053000Y-80170000D03*
X168783000Y-80170000D03*
X167513000Y-80170000D03*
X166243000Y-80170000D03*
X164973000Y-80170000D03*
X163703000Y-80170000D03*
X162433000Y-80170000D03*
X161163000Y-80170000D03*
X161163000Y-74770000D03*
X162433000Y-74770000D03*
X163703000Y-74770000D03*
X164973000Y-74770000D03*
X166243000Y-74770000D03*
X167513000Y-74770000D03*
X168783000Y-74770000D03*
X170053000Y-74770000D03*
D14*
X175227300Y-80530700D03*
X172727300Y-80530700D03*
X119144100Y-80530700D03*
X116644100Y-80530700D03*
X146855500Y-80530700D03*
X144355500Y-80530700D03*
X190162500Y-80530700D03*
X187662500Y-80530700D03*
D15*
X217297000Y-77704000D03*
X217297000Y-75204000D03*
M02*
