G04 #@! TF.GenerationSoftware,KiCad,Pcbnew,5.1.5*
G04 #@! TF.CreationDate,2020-05-28T21:48:18+02:00*
G04 #@! TF.ProjectId,PIV_FliFi_Slot,5049565f-466c-4694-9669-5f536c6f742e,rev?*
G04 #@! TF.SameCoordinates,Original*
G04 #@! TF.FileFunction,Copper,L1,Top*
G04 #@! TF.FilePolarity,Positive*
%FSLAX46Y46*%
G04 Gerber Fmt 4.6, Leading zero omitted, Abs format (unit mm)*
G04 Created by KiCad (PCBNEW 5.1.5) date 2020-05-28 21:48:18*
%MOMM*%
%LPD*%
G04 APERTURE LIST*
%ADD10R,1.500000X0.600000*%
%ADD11O,1.700000X1.700000*%
%ADD12R,1.700000X1.700000*%
%ADD13R,1.300000X1.500000*%
%ADD14O,1.524000X8.382000*%
%ADD15R,0.600000X1.500000*%
%ADD16R,1.500000X1.250000*%
%ADD17R,1.250000X1.500000*%
%ADD18C,0.800000*%
%ADD19C,0.600000*%
%ADD20C,0.889000*%
%ADD21C,0.250000*%
%ADD22C,0.152400*%
%ADD23C,0.203200*%
G04 APERTURE END LIST*
D10*
X214536000Y-73787000D03*
X214536000Y-75057000D03*
X214536000Y-76327000D03*
X214536000Y-77597000D03*
X214536000Y-78867000D03*
X214536000Y-80137000D03*
X214536000Y-81407000D03*
X209136000Y-81407000D03*
X209136000Y-80137000D03*
X209136000Y-78867000D03*
X209136000Y-77597000D03*
X209136000Y-76327000D03*
X209136000Y-75057000D03*
X209136000Y-73787000D03*
D11*
X116205000Y-77089000D03*
X116205000Y-74549000D03*
X118745000Y-77089000D03*
X118745000Y-74549000D03*
X121285000Y-77089000D03*
X121285000Y-74549000D03*
X123825000Y-77089000D03*
X123825000Y-74549000D03*
X126365000Y-77089000D03*
X126365000Y-74549000D03*
X128905000Y-77089000D03*
X128905000Y-74549000D03*
X131445000Y-77089000D03*
X131445000Y-74549000D03*
X133985000Y-77089000D03*
X133985000Y-74549000D03*
X136525000Y-77089000D03*
X136525000Y-74549000D03*
X139065000Y-77089000D03*
X139065000Y-74549000D03*
X141605000Y-77089000D03*
X141605000Y-74549000D03*
X144145000Y-77089000D03*
X144145000Y-74549000D03*
X146685000Y-77089000D03*
D12*
X146685000Y-74549000D03*
D11*
X220980000Y-82169000D03*
X220980000Y-79629000D03*
X220980000Y-77089000D03*
D12*
X220980000Y-74549000D03*
D11*
X173228000Y-77089000D03*
X173228000Y-74549000D03*
X175768000Y-77089000D03*
X175768000Y-74549000D03*
X178308000Y-77089000D03*
X178308000Y-74549000D03*
X180848000Y-77089000D03*
X180848000Y-74549000D03*
X183388000Y-77089000D03*
X183388000Y-74549000D03*
X185928000Y-77089000D03*
X185928000Y-74549000D03*
X188468000Y-77089000D03*
X188468000Y-74549000D03*
X191008000Y-77089000D03*
D12*
X191008000Y-74549000D03*
D13*
X206121000Y-81868000D03*
X206121000Y-79168000D03*
X206121000Y-76661000D03*
X206121000Y-73961000D03*
D14*
X128270000Y-88900000D03*
X222250000Y-88900000D03*
X201930000Y-88900000D03*
X133350000Y-88900000D03*
X204470000Y-88900000D03*
X151130000Y-88900000D03*
X161290000Y-88900000D03*
X189230000Y-88900000D03*
X146050000Y-88900000D03*
X110490000Y-88900000D03*
X163830000Y-88900000D03*
X125730000Y-88900000D03*
X168910000Y-88900000D03*
X138430000Y-88900000D03*
X107950000Y-88900000D03*
X212090000Y-88900000D03*
X214630000Y-88900000D03*
X209550000Y-88900000D03*
X181610000Y-88900000D03*
X217170000Y-88900000D03*
X140970000Y-88900000D03*
X156210000Y-88900000D03*
X153670000Y-88900000D03*
X184150000Y-88900000D03*
X179070000Y-88900000D03*
X166370000Y-88900000D03*
X219710000Y-88900000D03*
X105410000Y-88900000D03*
X135890000Y-88900000D03*
X102870000Y-88900000D03*
X199390000Y-88900000D03*
X207010000Y-88900000D03*
X194310000Y-88900000D03*
X196850000Y-88900000D03*
X143510000Y-88900000D03*
X148590000Y-88900000D03*
X191770000Y-88900000D03*
X115570000Y-88900000D03*
X113030000Y-88900000D03*
X158750000Y-88900000D03*
X130810000Y-88900000D03*
X186690000Y-88900000D03*
D15*
X203073000Y-80170000D03*
X201803000Y-80170000D03*
X200533000Y-80170000D03*
X199263000Y-80170000D03*
X197993000Y-80170000D03*
X196723000Y-80170000D03*
X195453000Y-80170000D03*
X194183000Y-80170000D03*
X194183000Y-74770000D03*
X195453000Y-74770000D03*
X196723000Y-74770000D03*
X197993000Y-74770000D03*
X199263000Y-74770000D03*
X200533000Y-74770000D03*
X201803000Y-74770000D03*
X203073000Y-74770000D03*
X112763300Y-80170000D03*
X111493300Y-80170000D03*
X110223300Y-80170000D03*
X108953300Y-80170000D03*
X107683300Y-80170000D03*
X106413300Y-80170000D03*
X105143300Y-80170000D03*
X103873300Y-80170000D03*
X103873300Y-74770000D03*
X105143300Y-74770000D03*
X106413300Y-74770000D03*
X107683300Y-74770000D03*
X108953300Y-74770000D03*
X110223300Y-74770000D03*
X111493300Y-74770000D03*
X112763300Y-74770000D03*
X158750000Y-80170000D03*
X157480000Y-80170000D03*
X156210000Y-80170000D03*
X154940000Y-80170000D03*
X153670000Y-80170000D03*
X152400000Y-80170000D03*
X151130000Y-80170000D03*
X149860000Y-80170000D03*
X149860000Y-74770000D03*
X151130000Y-74770000D03*
X152400000Y-74770000D03*
X153670000Y-74770000D03*
X154940000Y-74770000D03*
X156210000Y-74770000D03*
X157480000Y-74770000D03*
X158750000Y-74770000D03*
X170053000Y-80170000D03*
X168783000Y-80170000D03*
X167513000Y-80170000D03*
X166243000Y-80170000D03*
X164973000Y-80170000D03*
X163703000Y-80170000D03*
X162433000Y-80170000D03*
X161163000Y-80170000D03*
X161163000Y-74770000D03*
X162433000Y-74770000D03*
X163703000Y-74770000D03*
X164973000Y-74770000D03*
X166243000Y-74770000D03*
X167513000Y-74770000D03*
X168783000Y-74770000D03*
X170053000Y-74770000D03*
D16*
X175227300Y-80530700D03*
X172727300Y-80530700D03*
X119144100Y-80530700D03*
X116644100Y-80530700D03*
X146855500Y-80530700D03*
X144355500Y-80530700D03*
X190162500Y-80530700D03*
X187662500Y-80530700D03*
D17*
X217297000Y-77704000D03*
X217297000Y-75204000D03*
D18*
X156210000Y-83947000D03*
X162941000Y-84201000D03*
X169799000Y-84074000D03*
X130810000Y-83693000D03*
X116967000Y-84074000D03*
X196342000Y-83820000D03*
X183642000Y-83947000D03*
X199452408Y-83734210D03*
X212090000Y-84108970D03*
X208280000Y-84328000D03*
X148844000Y-74739500D03*
X158305500Y-73152000D03*
X161163000Y-73215500D03*
X169926000Y-73215500D03*
X176784000Y-80518000D03*
X191770000Y-80518000D03*
X204470000Y-73977500D03*
X217297000Y-79502000D03*
X148463000Y-80645000D03*
X103886000Y-73279000D03*
X114109500Y-74549000D03*
X192976500Y-74803000D03*
X120904000Y-80518000D03*
X158940500Y-78422500D03*
X179070000Y-84074000D03*
X215900000Y-84264500D03*
X171196000Y-80518000D03*
X185864500Y-80518000D03*
X217297000Y-73596500D03*
X142811500Y-80581500D03*
X112776000Y-81597500D03*
X203073000Y-81724500D03*
X115123649Y-80518000D03*
D19*
X168589719Y-78290790D03*
X164719000Y-78549500D03*
X139001500Y-79143822D03*
X139221139Y-72096379D03*
X179387500Y-79629000D03*
X161163000Y-78295500D03*
X149748001Y-77700120D03*
X103886000Y-81724500D03*
X132327613Y-79276546D03*
X162433000Y-76390494D03*
X163513794Y-78779621D03*
X164973000Y-73406000D03*
X165682534Y-78590710D03*
X168783000Y-76073000D03*
X157887442Y-77559942D03*
X157416500Y-81978500D03*
X130285367Y-82901448D03*
X154940000Y-82654710D03*
X114363500Y-83883500D03*
X134488218Y-82167716D03*
X136715500Y-72766290D03*
X138049000Y-72846589D03*
X132715000Y-80137004D03*
X111696500Y-83121500D03*
X133060089Y-81015304D03*
X110635879Y-78027439D03*
X106172000Y-78613000D03*
X106426000Y-76644500D03*
X109029500Y-76644500D03*
X110172500Y-76404967D03*
X200533000Y-81661000D03*
X199365962Y-82110210D03*
X196723000Y-82399113D03*
X178428216Y-78844003D03*
X196723000Y-76512790D03*
X221107000Y-84328000D03*
X199263000Y-76517500D03*
X200533000Y-76517500D03*
X207645000Y-77216000D03*
X189420500Y-82994500D03*
X211201000Y-74422000D03*
X208343500Y-82354790D03*
X217170000Y-83947000D03*
X219011500Y-84010500D03*
X210693000Y-75057000D03*
X210693000Y-78867000D03*
X210439000Y-76327000D03*
D20*
X156210000Y-88900000D02*
X156210000Y-83947000D01*
X130810000Y-88900000D02*
X130810000Y-83693000D01*
X184150000Y-88900000D02*
X184150000Y-84455000D01*
X184150000Y-84455000D02*
X183642000Y-83947000D01*
X194310000Y-88900000D02*
X194310000Y-84582000D01*
X195072000Y-83820000D02*
X196342000Y-83820000D01*
X194310000Y-84582000D02*
X195072000Y-83820000D01*
X199390000Y-88900000D02*
X199390000Y-83796618D01*
X199390000Y-83796618D02*
X199452408Y-83734210D01*
X209550000Y-88900000D02*
X209550000Y-85598000D01*
X208679999Y-84727999D02*
X208280000Y-84328000D01*
X209550000Y-85598000D02*
X208679999Y-84727999D01*
D21*
X149860000Y-74770000D02*
X148874500Y-74770000D01*
X148874500Y-74770000D02*
X148844000Y-74739500D01*
X158750000Y-74770000D02*
X158750000Y-73596500D01*
X158750000Y-73596500D02*
X158305500Y-73152000D01*
X161163000Y-74770000D02*
X161163000Y-73215500D01*
X170053000Y-74770000D02*
X170053000Y-73342500D01*
X170053000Y-73342500D02*
X169926000Y-73215500D01*
X175227300Y-80556100D02*
X176745900Y-80556100D01*
X176745900Y-80556100D02*
X176784000Y-80518000D01*
X191757300Y-80530700D02*
X191770000Y-80518000D01*
X190162500Y-80530700D02*
X191757300Y-80530700D01*
X203073000Y-74770000D02*
X203677500Y-74770000D01*
X203677500Y-74770000D02*
X204470000Y-73977500D01*
X206104500Y-73977500D02*
X206121000Y-73961000D01*
X204470000Y-73977500D02*
X206104500Y-73977500D01*
X208280000Y-84328000D02*
X208280000Y-83756500D01*
X209136000Y-82900500D02*
X209136000Y-81407000D01*
X208280000Y-83756500D02*
X209136000Y-82900500D01*
X217297000Y-77704000D02*
X217297000Y-79502000D01*
X146855500Y-80530700D02*
X148348700Y-80530700D01*
X148348700Y-80530700D02*
X148463000Y-80645000D01*
X103873300Y-74770000D02*
X103873300Y-73291700D01*
X103873300Y-73291700D02*
X103886000Y-73279000D01*
X112763300Y-74770000D02*
X113888500Y-74770000D01*
X113888500Y-74770000D02*
X114109500Y-74549000D01*
X194183000Y-74770000D02*
X193009500Y-74770000D01*
X193009500Y-74770000D02*
X192976500Y-74803000D01*
X120891300Y-80530700D02*
X120904000Y-80518000D01*
X119144100Y-80530700D02*
X120891300Y-80530700D01*
X158750000Y-80170000D02*
X158750000Y-78613000D01*
X158750000Y-78613000D02*
X158940500Y-78422500D01*
D20*
X214630000Y-88900000D02*
X214630000Y-85534500D01*
X214630000Y-85534500D02*
X215900000Y-84264500D01*
X217170000Y-85534500D02*
X217170000Y-88900000D01*
X215900000Y-84264500D02*
X217170000Y-85534500D01*
D21*
X170053000Y-80170000D02*
X170848000Y-80170000D01*
X170848000Y-80170000D02*
X171196000Y-80518000D01*
X172689200Y-80518000D02*
X172727300Y-80556100D01*
X171196000Y-80518000D02*
X172689200Y-80518000D01*
X187662500Y-80530700D02*
X185877200Y-80530700D01*
X185877200Y-80530700D02*
X185864500Y-80518000D01*
X217297000Y-75204000D02*
X217297000Y-73596500D01*
X214726500Y-73596500D02*
X214536000Y-73787000D01*
X217297000Y-73596500D02*
X214726500Y-73596500D01*
X144355500Y-80530700D02*
X142862300Y-80530700D01*
X142862300Y-80530700D02*
X142811500Y-80581500D01*
X112763300Y-81584800D02*
X112776000Y-81597500D01*
X112763300Y-80170000D02*
X112763300Y-81584800D01*
X203073000Y-80170000D02*
X203073000Y-81724500D01*
X116644100Y-80530700D02*
X115136349Y-80530700D01*
X115136349Y-80530700D02*
X115123649Y-80518000D01*
D22*
X168783000Y-80170000D02*
X168783000Y-78484071D01*
X168783000Y-78484071D02*
X168589719Y-78290790D01*
X167513000Y-81170000D02*
X167513000Y-80170000D01*
X167513000Y-83316000D02*
X167513000Y-81170000D01*
X166370000Y-84459000D02*
X167513000Y-83316000D01*
X166370000Y-88900000D02*
X166370000Y-84459000D01*
X166243000Y-81170000D02*
X166243000Y-80170000D01*
X166243000Y-82046000D02*
X166243000Y-81170000D01*
X163830000Y-84459000D02*
X166243000Y-82046000D01*
X163830000Y-88900000D02*
X163830000Y-84459000D01*
X164973000Y-80170000D02*
X164973000Y-78803500D01*
X164973000Y-78803500D02*
X164719000Y-78549500D01*
X139065000Y-79080322D02*
X139001500Y-79143822D01*
X139065000Y-77089000D02*
X139065000Y-79080322D01*
X163703000Y-81170000D02*
X163703000Y-80170000D01*
X163703000Y-82046000D02*
X163703000Y-81170000D01*
X161290000Y-84459000D02*
X163703000Y-82046000D01*
X161290000Y-88900000D02*
X161290000Y-84459000D01*
X159956500Y-73533000D02*
X158519879Y-72096379D01*
X162433000Y-78105000D02*
X159956500Y-75628500D01*
X162433000Y-80170000D02*
X162433000Y-78105000D01*
X139645403Y-72096379D02*
X139221139Y-72096379D01*
X158519879Y-72096379D02*
X139645403Y-72096379D01*
X159956500Y-75628500D02*
X159956500Y-73533000D01*
X161163000Y-78719764D02*
X161163000Y-80170000D01*
X161163000Y-78295500D02*
X161163000Y-78719764D01*
X149860000Y-77812119D02*
X149748001Y-77700120D01*
X149860000Y-80170000D02*
X149860000Y-77812119D01*
X103873300Y-80170000D02*
X103873300Y-81711800D01*
X103873300Y-81711800D02*
X103886000Y-81724500D01*
X133195354Y-79720023D02*
X132751877Y-79276546D01*
X145351500Y-78422500D02*
X141541500Y-78422500D01*
X132751877Y-79276546D02*
X132327613Y-79276546D01*
X141541500Y-78422500D02*
X140243977Y-79720023D01*
X140243977Y-79720023D02*
X133195354Y-79720023D01*
X146685000Y-77089000D02*
X145351500Y-78422500D01*
X160738736Y-78295500D02*
X159405236Y-76962000D01*
X161163000Y-78295500D02*
X160738736Y-78295500D01*
X159405236Y-76962000D02*
X155892500Y-76962000D01*
X155154380Y-77700120D02*
X149748001Y-77700120D01*
X155892500Y-76962000D02*
X155154380Y-77700120D01*
X194183000Y-80170000D02*
X192867280Y-80170000D01*
X192326280Y-79629000D02*
X179811764Y-79629000D01*
X179811764Y-79629000D02*
X179387500Y-79629000D01*
X192867280Y-80170000D02*
X192326280Y-79629000D01*
X162433000Y-74770000D02*
X162433000Y-76390494D01*
X163703000Y-74770000D02*
X163703000Y-78536574D01*
X163703000Y-78536574D02*
X163513794Y-78725780D01*
D21*
X163513794Y-78725780D02*
X163513794Y-78779621D01*
D22*
X164973000Y-73406000D02*
X164973000Y-74770000D01*
X166243000Y-74770000D02*
X166243000Y-78030244D01*
X166243000Y-78030244D02*
X165682534Y-78590710D01*
D21*
X168910000Y-88900000D02*
X168910000Y-84459000D01*
D22*
X168138001Y-83687001D02*
X168138001Y-78899226D01*
X168910000Y-84459000D02*
X168138001Y-83687001D01*
X167513000Y-78274225D02*
X167513000Y-75672400D01*
X167513000Y-75672400D02*
X167513000Y-74770000D01*
X168138001Y-78899226D02*
X167513000Y-78274225D01*
X168783000Y-74770000D02*
X168783000Y-76073000D01*
X157480000Y-80170000D02*
X157480000Y-77967384D01*
X157480000Y-77967384D02*
X157587443Y-77859941D01*
X157587443Y-77859941D02*
X157887442Y-77559942D01*
X157416500Y-80233500D02*
X157480000Y-80170000D01*
X157416500Y-81978500D02*
X157416500Y-80233500D01*
X129861103Y-82901448D02*
X130285367Y-82901448D01*
X118745000Y-77089000D02*
X124557448Y-82901448D01*
X124557448Y-82901448D02*
X129861103Y-82901448D01*
X158750000Y-84459000D02*
X156210000Y-81919000D01*
X156210000Y-81170000D02*
X156210000Y-80170000D01*
X156210000Y-81919000D02*
X156210000Y-81170000D01*
X158750000Y-88900000D02*
X158750000Y-84459000D01*
X154940000Y-80170000D02*
X154940000Y-82654710D01*
X128905000Y-78291081D02*
X128905000Y-77089000D01*
X134052919Y-83439000D02*
X128905000Y-78291081D01*
X153670000Y-81072400D02*
X151303400Y-83439000D01*
X153670000Y-80170000D02*
X153670000Y-81072400D01*
X151303400Y-83439000D02*
X134052919Y-83439000D01*
D23*
X113254599Y-89392299D02*
X113254599Y-84998099D01*
D22*
X113030000Y-84556600D02*
X113030000Y-88900000D01*
X113703100Y-83883500D02*
X113030000Y-84556600D01*
X114363500Y-83883500D02*
X113703100Y-83883500D01*
X151004685Y-82467715D02*
X134788217Y-82467715D01*
X134788217Y-82467715D02*
X134488218Y-82167716D01*
X152400000Y-81072400D02*
X151004685Y-82467715D01*
X152400000Y-80170000D02*
X152400000Y-81072400D01*
X131445000Y-78291081D02*
X131445000Y-77089000D01*
X151130000Y-81072400D02*
X150610894Y-81591506D01*
X151130000Y-80170000D02*
X151130000Y-81072400D01*
X150610894Y-81591506D02*
X132783511Y-81591506D01*
X132783511Y-81591506D02*
X131445000Y-80252995D01*
X131445000Y-80252995D02*
X131445000Y-78291081D01*
X137015499Y-73066289D02*
X136715500Y-72766290D01*
X137372009Y-73422799D02*
X137015499Y-73066289D01*
X150892799Y-73422799D02*
X137372009Y-73422799D01*
X151130000Y-74770000D02*
X151130000Y-73660000D01*
X151130000Y-73660000D02*
X150892799Y-73422799D01*
X138473264Y-72846589D02*
X138049000Y-72846589D01*
X151778638Y-73070388D02*
X138697063Y-73070388D01*
X152400000Y-74770000D02*
X152400000Y-73691750D01*
X138697063Y-73070388D02*
X138473264Y-72846589D01*
X152400000Y-73691750D02*
X151778638Y-73070388D01*
X135111201Y-75962799D02*
X134834999Y-76239001D01*
X153379601Y-75962799D02*
X135111201Y-75962799D01*
X134834999Y-76239001D02*
X133985000Y-77089000D01*
X153670000Y-74770000D02*
X153670000Y-75672400D01*
X153670000Y-75672400D02*
X153379601Y-75962799D01*
X149681290Y-76315210D02*
X147221589Y-78774911D01*
X147221589Y-78774911D02*
X141760589Y-78774911D01*
X154940000Y-75672400D02*
X154297190Y-76315210D01*
X154940000Y-74770000D02*
X154940000Y-75672400D01*
X141760589Y-78774911D02*
X140398496Y-80137004D01*
X140398496Y-80137004D02*
X133139264Y-80137004D01*
X154297190Y-76315210D02*
X149681290Y-76315210D01*
X133139264Y-80137004D02*
X132715000Y-80137004D01*
X110490000Y-84328000D02*
X110490000Y-88900000D01*
X111696500Y-83121500D02*
X110490000Y-84328000D01*
X156210000Y-75672400D02*
X154758490Y-77123910D01*
X147494562Y-79127322D02*
X141916178Y-79127322D01*
X156210000Y-74770000D02*
X156210000Y-75672400D01*
X140028196Y-81015304D02*
X133484353Y-81015304D01*
X141916178Y-79127322D02*
X140028196Y-81015304D01*
X133484353Y-81015304D02*
X133060089Y-81015304D01*
X149497974Y-77123910D02*
X147494562Y-79127322D01*
X154758490Y-77123910D02*
X149497974Y-77123910D01*
X136343912Y-72190088D02*
X134834999Y-73699001D01*
X156284989Y-72672589D02*
X138829973Y-72672589D01*
X134834999Y-73699001D02*
X133985000Y-74549000D01*
X138829973Y-72672589D02*
X138347472Y-72190088D01*
X157480000Y-73867600D02*
X156284989Y-72672589D01*
X157480000Y-74770000D02*
X157480000Y-73867600D01*
X138347472Y-72190088D02*
X136343912Y-72190088D01*
D23*
X108174599Y-89392299D02*
X108174599Y-84998099D01*
D22*
X110223300Y-81072400D02*
X110223300Y-80170000D01*
X110223300Y-82283300D02*
X110223300Y-81072400D01*
X107950000Y-84556600D02*
X110223300Y-82283300D01*
X107950000Y-88900000D02*
X107950000Y-84556600D01*
D23*
X105634599Y-89392299D02*
X105634599Y-84998099D01*
D22*
X108953300Y-80848200D02*
X108953300Y-80620000D01*
X108953300Y-80620000D02*
X108953300Y-80170000D01*
X105410000Y-88900000D02*
X105410000Y-84391500D01*
X105410000Y-84391500D02*
X108953300Y-80848200D01*
X110211615Y-78027439D02*
X110635879Y-78027439D01*
X107683300Y-78752700D02*
X108408561Y-78027439D01*
X107683300Y-80170000D02*
X107683300Y-78752700D01*
X108408561Y-78027439D02*
X110211615Y-78027439D01*
D23*
X103094599Y-89392299D02*
X103094599Y-84998099D01*
D22*
X106413300Y-80620000D02*
X106413300Y-80170000D01*
X106413300Y-80911700D02*
X106413300Y-80620000D01*
X102870000Y-88900000D02*
X102870000Y-84455000D01*
X102870000Y-84455000D02*
X106413300Y-80911700D01*
X105143300Y-80170000D02*
X105143300Y-79217436D01*
X105747736Y-78613000D02*
X106172000Y-78613000D01*
X105143300Y-79217436D02*
X105747736Y-78613000D01*
X122618500Y-75882500D02*
X112077500Y-75882500D01*
X123825000Y-77089000D02*
X122618500Y-75882500D01*
X105143300Y-75672400D02*
X105143300Y-74770000D01*
X105143300Y-76758800D02*
X105143300Y-75672400D01*
X112077500Y-75882500D02*
X110490000Y-77470000D01*
X110490000Y-77470000D02*
X105854500Y-77470000D01*
X105854500Y-77470000D02*
X105143300Y-76758800D01*
X106426000Y-74782700D02*
X106413300Y-74770000D01*
X106426000Y-76644500D02*
X106426000Y-74782700D01*
X123825000Y-73533000D02*
X123825000Y-74549000D01*
X122999500Y-72707500D02*
X123825000Y-73533000D01*
X108843400Y-72707500D02*
X122999500Y-72707500D01*
X107683300Y-74770000D02*
X107683300Y-73867600D01*
X107683300Y-73867600D02*
X108843400Y-72707500D01*
X109029500Y-74846200D02*
X108953300Y-74770000D01*
X109029500Y-76644500D02*
X109029500Y-74846200D01*
X110223300Y-76354167D02*
X110172500Y-76404967D01*
X110223300Y-74770000D02*
X110223300Y-76354167D01*
X111823500Y-73152000D02*
X111493300Y-73482200D01*
X126365000Y-77089000D02*
X125095000Y-75819000D01*
X125095000Y-75819000D02*
X123317000Y-75819000D01*
X123317000Y-75819000D02*
X122491500Y-74993500D01*
X122491500Y-74993500D02*
X122491500Y-73850500D01*
X111493300Y-73482200D02*
X111493300Y-74770000D01*
X121793000Y-73152000D02*
X111823500Y-73152000D01*
X122491500Y-73850500D02*
X121793000Y-73152000D01*
X190627000Y-82296000D02*
X180975000Y-82296000D01*
X191306323Y-82975323D02*
X190627000Y-82296000D01*
X200044177Y-82975323D02*
X191306323Y-82975323D01*
X180975000Y-82296000D02*
X176617999Y-77938999D01*
X201803000Y-81216500D02*
X200044177Y-82975323D01*
X176617999Y-77938999D02*
X175768000Y-77089000D01*
X201803000Y-80170000D02*
X201803000Y-81216500D01*
X200533000Y-81661000D02*
X200533000Y-80170000D01*
X199263000Y-80170000D02*
X199263000Y-81534000D01*
X199263000Y-81534000D02*
X199263000Y-82007248D01*
X199263000Y-82007248D02*
X199365962Y-82110210D01*
X177038000Y-77724000D02*
X177038000Y-75819000D01*
X197993000Y-80170000D02*
X197993000Y-79267600D01*
X177581801Y-78267801D02*
X177038000Y-77724000D01*
X176617999Y-75398999D02*
X175768000Y-74549000D01*
X189509593Y-78628977D02*
X189148417Y-78267801D01*
X197373310Y-78647910D02*
X192341956Y-78647910D01*
X197993000Y-79267600D02*
X197373310Y-78647910D01*
X192323023Y-78628977D02*
X189509593Y-78628977D01*
X177038000Y-75819000D02*
X176617999Y-75398999D01*
X192341956Y-78647910D02*
X192323023Y-78628977D01*
X189148417Y-78267801D02*
X177581801Y-78267801D01*
X196723000Y-80170000D02*
X196723000Y-82399113D01*
X178852480Y-78844003D02*
X178428216Y-78844003D01*
X179008797Y-79000320D02*
X178852480Y-78844003D01*
X195453000Y-79267600D02*
X195185720Y-79000320D01*
X195185720Y-79000320D02*
X179008797Y-79000320D01*
X195453000Y-80170000D02*
X195453000Y-79267600D01*
X195453000Y-73867600D02*
X194737400Y-73152000D01*
X195453000Y-74770000D02*
X195453000Y-73867600D01*
X194737400Y-73152000D02*
X182753000Y-73152000D01*
X182753000Y-73152000D02*
X182118000Y-73787000D01*
X182118000Y-75819000D02*
X180848000Y-77089000D01*
X182118000Y-73787000D02*
X182118000Y-75819000D01*
X196723000Y-74770000D02*
X196723000Y-76512790D01*
X197993000Y-73867600D02*
X196896400Y-72771000D01*
X197993000Y-74770000D02*
X197993000Y-73867600D01*
X182626000Y-72771000D02*
X180848000Y-74549000D01*
X196896400Y-72771000D02*
X182626000Y-72771000D01*
X222250000Y-88900000D02*
X222250000Y-85471000D01*
X221335600Y-84556600D02*
X221107000Y-84328000D01*
X222250000Y-85471000D02*
X221335600Y-84556600D01*
X199263000Y-76093236D02*
X199263000Y-74770000D01*
X199263000Y-76517500D02*
X199263000Y-76093236D01*
X200533000Y-76093236D02*
X200533000Y-74770000D01*
X200533000Y-76517500D02*
X200533000Y-76093236D01*
X201803000Y-74770000D02*
X201803000Y-76327000D01*
X201803000Y-76327000D02*
X200977500Y-77152500D01*
X200977500Y-77152500D02*
X193040000Y-77152500D01*
X184237999Y-76239001D02*
X183388000Y-77089000D01*
X184514201Y-75962799D02*
X184237999Y-76239001D01*
X191850299Y-75962799D02*
X184514201Y-75962799D01*
X193040000Y-77152500D02*
X191850299Y-75962799D01*
X189230000Y-83185000D02*
X189420500Y-82994500D01*
X189230000Y-88900000D02*
X189230000Y-83185000D01*
X208026000Y-77597000D02*
X209136000Y-77597000D01*
X207645000Y-77216000D02*
X208026000Y-77597000D01*
X219710000Y-83439000D02*
X220980000Y-82169000D01*
X219710000Y-88900000D02*
X219710000Y-83439000D01*
X209136000Y-73787000D02*
X210566000Y-73787000D01*
X210566000Y-73787000D02*
X211201000Y-74422000D01*
X207010000Y-83688290D02*
X208043501Y-82654789D01*
X208043501Y-82654789D02*
X208343500Y-82354790D01*
X207010000Y-88900000D02*
X207010000Y-83688290D01*
X143510000Y-84556600D02*
X142744811Y-83791411D01*
X142744811Y-83791411D02*
X133194411Y-83791411D01*
X127214999Y-75398999D02*
X126365000Y-74549000D01*
X133194411Y-83791411D02*
X127571500Y-78168500D01*
X127571500Y-75755500D02*
X127214999Y-75398999D01*
X143510000Y-88900000D02*
X143510000Y-84556600D01*
X127571500Y-78168500D02*
X127571500Y-75755500D01*
X115570000Y-88900000D02*
X115570000Y-81965131D01*
X114447447Y-80842578D02*
X114447447Y-78846553D01*
X115570000Y-81965131D02*
X114447447Y-80842578D01*
X114447447Y-78846553D02*
X115355001Y-77938999D01*
X115355001Y-77938999D02*
X116205000Y-77089000D01*
X215438400Y-80137000D02*
X217170000Y-81868600D01*
X217170000Y-81868600D02*
X217170000Y-83522736D01*
X214536000Y-80137000D02*
X215438400Y-80137000D01*
X217170000Y-83522736D02*
X217170000Y-83947000D01*
X219011500Y-75515100D02*
X219011500Y-83586236D01*
X219011500Y-83586236D02*
X219011500Y-84010500D01*
X219977600Y-74549000D02*
X219011500Y-75515100D01*
X220980000Y-74549000D02*
X219977600Y-74549000D01*
X214536000Y-75509400D02*
X214353400Y-75692000D01*
X214536000Y-75057000D02*
X214536000Y-75509400D01*
X206121000Y-75758600D02*
X206121000Y-76661000D01*
X206187600Y-75692000D02*
X206121000Y-75758600D01*
X214353400Y-75692000D02*
X206187600Y-75692000D01*
X214536000Y-75874600D02*
X214353400Y-75692000D01*
X214536000Y-76327000D02*
X214536000Y-75874600D01*
X213633600Y-81407000D02*
X212998600Y-80772000D01*
X214536000Y-81407000D02*
X213633600Y-81407000D01*
X212998600Y-80772000D02*
X208026000Y-80772000D01*
X206930000Y-81868000D02*
X206121000Y-81868000D01*
X208026000Y-80772000D02*
X206930000Y-81868000D01*
X206121000Y-79168000D02*
X206121000Y-78265600D01*
X206121000Y-78265600D02*
X205794399Y-77938999D01*
X205794399Y-77938999D02*
X193060080Y-77938999D01*
X192210081Y-77089000D02*
X191008000Y-77089000D01*
X193060080Y-77938999D02*
X192210081Y-77089000D01*
X214536000Y-78867000D02*
X209136000Y-78867000D01*
X209136000Y-75057000D02*
X210693000Y-75057000D01*
X209136000Y-76327000D02*
X210439000Y-76327000D01*
X207979600Y-80391000D02*
X205446838Y-80391000D01*
X209136000Y-80137000D02*
X208233600Y-80137000D01*
X208233600Y-80137000D02*
X207979600Y-80391000D01*
X192468995Y-78276567D02*
X189655567Y-78276567D01*
X203351338Y-78295500D02*
X192487928Y-78295500D01*
X189655567Y-78276567D02*
X189317999Y-77938999D01*
X192487928Y-78295500D02*
X192468995Y-78276567D01*
X189317999Y-77938999D02*
X188468000Y-77089000D01*
X205446838Y-80391000D02*
X203351338Y-78295500D01*
M02*
