G04 #@! TF.GenerationSoftware,KiCad,Pcbnew,5.1.5*
G04 #@! TF.CreationDate,2020-05-28T21:48:18+02:00*
G04 #@! TF.ProjectId,PIV_FliFi_Slot,5049565f-466c-4694-9669-5f536c6f742e,rev?*
G04 #@! TF.SameCoordinates,Original*
G04 #@! TF.FileFunction,Paste,Bot*
G04 #@! TF.FilePolarity,Positive*
%FSLAX46Y46*%
G04 Gerber Fmt 4.6, Leading zero omitted, Abs format (unit mm)*
G04 Created by KiCad (PCBNEW 5.1.5) date 2020-05-28 21:48:18*
%MOMM*%
%LPD*%
G04 APERTURE LIST*
%ADD10O,1.524000X8.382000*%
G04 APERTURE END LIST*
D10*
X102870000Y-88900000D03*
X107950000Y-88900000D03*
X110490000Y-88900000D03*
X105410000Y-88900000D03*
X113030000Y-88900000D03*
X115570000Y-88900000D03*
X125730000Y-88900000D03*
X130810000Y-88900000D03*
X133350000Y-88900000D03*
X128270000Y-88900000D03*
X135890000Y-88900000D03*
X138430000Y-88900000D03*
X140970000Y-88900000D03*
X146050000Y-88900000D03*
X148590000Y-88900000D03*
X143510000Y-88900000D03*
X151130000Y-88900000D03*
X153670000Y-88900000D03*
X156210000Y-88900000D03*
X161290000Y-88900000D03*
X163830000Y-88900000D03*
X158750000Y-88900000D03*
X166370000Y-88900000D03*
X168910000Y-88900000D03*
X179070000Y-88900000D03*
X184150000Y-88900000D03*
X186690000Y-88900000D03*
X181610000Y-88900000D03*
X189230000Y-88900000D03*
X191770000Y-88900000D03*
X194310000Y-88900000D03*
X199390000Y-88900000D03*
X201930000Y-88900000D03*
X196850000Y-88900000D03*
X204470000Y-88900000D03*
X207010000Y-88900000D03*
X209550000Y-88900000D03*
X217170000Y-88900000D03*
X212090000Y-88900000D03*
X219710000Y-88900000D03*
X214630000Y-88900000D03*
X222250000Y-88900000D03*
M02*
