G04 #@! TF.GenerationSoftware,KiCad,Pcbnew,5.1.5*
G04 #@! TF.CreationDate,2020-05-28T21:48:18+02:00*
G04 #@! TF.ProjectId,PIV_FliFi_Slot,5049565f-466c-4694-9669-5f536c6f742e,rev?*
G04 #@! TF.SameCoordinates,Original*
G04 #@! TF.FileFunction,Profile,NP*
%FSLAX46Y46*%
G04 Gerber Fmt 4.6, Leading zero omitted, Abs format (unit mm)*
G04 Created by KiCad (PCBNEW 5.1.5) date 2020-05-28 21:48:18*
%MOMM*%
%LPD*%
G04 APERTURE LIST*
%ADD10C,0.050000*%
G04 APERTURE END LIST*
D10*
X176784000Y-85090000D02*
X176403000Y-84709000D01*
X171196000Y-85090000D02*
X171577000Y-84709000D01*
X123444000Y-85090000D02*
X123063000Y-84709000D01*
X117856000Y-85090000D02*
X118237000Y-84709000D01*
X100584000Y-71374000D02*
X224536000Y-71374000D01*
X118237000Y-84709000D02*
X123063000Y-84709000D01*
X224536000Y-91567000D02*
X224536000Y-71374000D01*
X223774000Y-92329000D02*
X224536000Y-91567000D01*
X177419000Y-92329000D02*
X223774000Y-92329000D01*
X176784000Y-91694000D02*
X177419000Y-92329000D01*
X176784000Y-85090000D02*
X176784000Y-91694000D01*
X171577000Y-84709000D02*
X176403000Y-84709000D01*
X171196000Y-91694000D02*
X171196000Y-85090000D01*
X170561000Y-92329000D02*
X171196000Y-91694000D01*
X124206000Y-92329000D02*
X170561000Y-92329000D01*
X123444000Y-91567000D02*
X124206000Y-92329000D01*
X123444000Y-91567000D02*
X123444000Y-85090000D01*
X100584000Y-91567000D02*
X101346000Y-92329000D01*
X100584000Y-91567000D02*
X100584000Y-71374000D01*
X117856000Y-91567000D02*
X117094000Y-92329000D01*
X117856000Y-91567000D02*
X117856000Y-85090000D01*
X101346000Y-92329000D02*
X117094000Y-92329000D01*
M02*
