M48
INCH,TZ
T1C0.0118
T2C0.0157
T3C0.0394
%
G90
G05
T1
X40900Y-32175
X41800Y-30950
X41900Y-30175
X42925Y-30175
X43375Y-30081
X43557Y-30719
X43975Y-32725
X45025Y-33025
X51293Y-32638
X52097Y-31211
X52250Y-31550
X52386Y-31896
X52948Y-32349
X53825Y-28648
X54350Y-28680
X54725Y-31159
X54811Y-28384
X58956Y-30591
X61000Y-32541
X61975Y-32275
X62160Y-30535
X63450Y-30825
X63950Y-30075
X64376Y-31016
X64850Y-30925
X64950Y-28900
X65229Y-30941
X66374Y-30823
X66450Y-29950
X70247Y-31041
X70625Y-31350
X74575Y-32675
X77450Y-30123
X77450Y-32441
X78450Y-30125
X78491Y-32327
X78950Y-30125
X78950Y-32150
X81750Y-30400
X82025Y-32423
X82850Y-30050
X82950Y-29550
X82950Y-31050
X83150Y-29300
X85500Y-33050
X86225Y-33075
X87050Y-33200
T2
X40900Y-28850
X44400Y-32125
X44925Y-29350
X45324Y-31700
X46050Y-33100
X47600Y-31700
X51500Y-32950
X56225Y-31725
X58450Y-31750
X58600Y-29425
X61500Y-33050
X62325Y-28800
X62575Y-30875
X63450Y-28825
X64150Y-33150
X66850Y-33100
X66900Y-28825
X67400Y-31700
X69600Y-31700
X70500Y-33100
X72300Y-33050
X73175Y-31700
X75500Y-31700
X75975Y-29450
X77300Y-33000
X78525Y-32966
X79950Y-32175
X80500Y-29125
X82000Y-33200
X83500Y-33114
X85000Y-33175
X85550Y-28975
X85550Y-31300
T3
X68200Y-29350
X68200Y-30350
X69200Y-29350
X69200Y-30350
X70200Y-29350
X70200Y-30350
X71200Y-29350
X71200Y-30350
X72200Y-29350
X72200Y-30350
X73200Y-29350
X73200Y-30350
X74200Y-29350
X74200Y-30350
X75200Y-29350
X75200Y-30350
X87000Y-29350
X87000Y-30350
X87000Y-31350
X87000Y-32350
X45750Y-29350
X45750Y-30350
X46750Y-29350
X46750Y-30350
X47750Y-29350
X47750Y-30350
X48750Y-29350
X48750Y-30350
X49750Y-29350
X49750Y-30350
X50750Y-29350
X50750Y-30350
X51750Y-29350
X51750Y-30350
X52750Y-29350
X52750Y-30350
X53750Y-29350
X53750Y-30350
X54750Y-29350
X54750Y-30350
X55750Y-29350
X55750Y-30350
X56750Y-29350
X56750Y-30350
X57750Y-29350
X57750Y-30350
T0
M30
